<?xml version="1.0" standalone="no"?>
<!DOCTYPE svg PUBLIC "-//W3C//DTD SVG 20010904//EN"
 "http://www.w3.org/TR/2001/REC-SVG-20010904/DTD/svg10.dtd">
<svg version="1.0" xmlns="http://www.w3.org/2000/svg"
 width="500.000000pt" height="500.000000pt" viewBox="0 0 500.000000 500.000000"
 preserveAspectRatio="xMidYMid meet">
<metadata>
Created by potrace 1.14, written by Peter Selinger 2001-2017
</metadata>
<g transform="translate(0.000000,500.000000) scale(0.100000,-0.100000)"
fill="#000000" stroke="none">
<path d="M379 4985 c-177 -48 -310 -182 -363 -364 -14 -49 -16 -267 -15 -2120
0 -2249 -3 -2108 56 -2231 34 -71 141 -178 213 -212 127 -62 -20 -58 2227 -58
1455 0 2067 3 2105 11 185 38 347 200 387 384 7 35 10 688 11 2110 0 1686 -3
2069 -14 2110 -50 187 -200 335 -381 374 -78 16 -4165 13 -4226 -4z"/>
</g>
</svg>
